<?xml version="1.0" encoding="UTF-8" standalone="no"?>
<svg
   xmlns:dc="http://purl.org/dc/elements/1.1/"
   xmlns:cc="http://creativecommons.org/ns#"
   xmlns:rdf="http://www.w3.org/1999/02/22-rdf-syntax-ns#"
   xmlns:svg="http://www.w3.org/2000/svg"
   xmlns="http://www.w3.org/2000/svg"
   xmlns:sodipodi="http://sodipodi.sourceforge.net/DTD/sodipodi-0.dtd"
   xmlns:inkscape="http://www.inkscape.org/namespaces/inkscape"
   version="1.1"
   id="Layer_1"
   x="0px"
   y="0px"
   width="24"
   height="24"
   viewBox="0 0 24 23.999999"
   enable-background="new 0 0 26 26"
   xml:space="preserve"
   inkscape:version="0.48.4 r9939"
   sodipodi:docname="indicator-processor-dark.svg"><metadata
     id="metadata53"><rdf:RDF><cc:Work
         rdf:about=""><dc:format>image/svg+xml</dc:format><dc:type
           rdf:resource="http://purl.org/dc/dcmitype/StillImage" /></cc:Work></rdf:RDF></metadata><defs
     id="defs51" /><sodipodi:namedview
     pagecolor="#ffffff"
     bordercolor="#666666"
     borderopacity="1"
     objecttolerance="10"
     gridtolerance="10"
     guidetolerance="10"
     inkscape:pageopacity="0"
     inkscape:pageshadow="2"
     inkscape:window-width="1920"
     inkscape:window-height="1056"
     id="namedview49"
     showgrid="false"
     fit-margin-top="0"
     fit-margin-left="0"
     fit-margin-right="0"
     fit-margin-bottom="0"
     inkscape:zoom="25.673415"
     inkscape:cx="18.67892"
     inkscape:cy="12.517983"
     inkscape:window-x="0"
     inkscape:window-y="24"
     inkscape:window-maximized="1"
     inkscape:current-layer="Layer_1" /><g
     id="g3"
     transform="matrix(1.6709602,0,0,1.6824396,-9.8469685,-9.8725558)"><path
       d="M 17.256,8.189 H 8.967 c -0.331,0 -0.599,0.268 -0.599,0.599 v 8.392 c 0,0.331 0.269,0.6 0.599,0.6 h 8.289 c 0.33,0 0.599,-0.269 0.599,-0.6 V 8.789 c -0.001,-0.331 -0.269,-0.6 -0.599,-0.6 z M 16.96,16.887 H 9.262 V 9.083 h 7.698 v 7.804 z"
       id="path5"
       inkscape:connector-curvature="0" /><rect
       x="18.504"
       y="9.3929996"
       width="1.752"
       height="0.84899998"
       id="rect7" /><rect
       x="18.504"
       y="11.04"
       width="1.752"
       height="0.84899998"
       id="rect9" /><rect
       x="18.504"
       y="12.638"
       width="1.752"
       height="0.84899998"
       id="rect11" /><rect
       x="18.504"
       y="14.286"
       width="1.752"
       height="0.84899998"
       id="rect13" /><rect
       x="18.504"
       y="16.009001"
       width="1.752"
       height="0.85000002"
       id="rect15" /><rect
       x="15.995"
       y="5.868"
       width="0.84899998"
       height="1.752"
       id="rect17" /><rect
       x="14.347"
       y="5.868"
       width="0.85000002"
       height="1.752"
       id="rect19" /><rect
       x="12.75"
       y="5.868"
       width="0.84899998"
       height="1.752"
       id="rect21" /><rect
       x="11.102"
       y="5.868"
       width="0.84899998"
       height="1.752"
       id="rect23" /><rect
       x="9.3789997"
       y="5.868"
       width="0.84899998"
       height="1.752"
       id="rect25" /><rect
       x="5.8930001"
       y="15.945"
       width="1.752"
       height="0.85000002"
       id="rect27" /><rect
       x="5.8930001"
       y="14.299"
       width="1.752"
       height="0.84899998"
       id="rect29" /><rect
       x="5.8930001"
       y="12.701"
       width="1.752"
       height="0.85000002"
       id="rect31" /><rect
       x="5.8930001"
       y="11.053"
       width="1.752"
       height="0.84899998"
       id="rect33" /><rect
       x="5.8930001"
       y="9.3299999"
       width="1.752"
       height="0.84899998"
       id="rect35" /><rect
       x="9.4420004"
       y="18.379999"
       width="0.84899998"
       height="1.753"
       id="rect37" /><rect
       x="11.089"
       y="18.379999"
       width="0.85000002"
       height="1.753"
       id="rect39" /><rect
       x="12.687"
       y="18.379999"
       width="0.84799999"
       height="1.753"
       id="rect41" /><rect
       x="14.335"
       y="18.379999"
       width="0.84899998"
       height="1.753"
       id="rect43" /><rect
       x="16.058001"
       y="18.379999"
       width="0.84899998"
       height="1.753"
       id="rect45" /><circle
       cx="15.233"
       cy="15.135"
       r="0.824"
       id="circle47"
       sodipodi:cx="15.233"
       sodipodi:cy="15.135"
       sodipodi:rx="0.824"
       sodipodi:ry="0.824"
       d="m 16.057,15.135 c 0,0.455083 -0.368918,0.824 -0.824,0.824 -0.455083,0 -0.824,-0.368917 -0.824,-0.824 0,-0.455082 0.368917,-0.824 0.824,-0.824 0.455082,0 0.824,0.368918 0.824,0.824 z" /></g></svg>